<mxfile host="app.diagrams.net" modified="2023-04-03T15:46:29.905Z" agent="Mozilla/5.0 (Windows NT 10.0; Win64; x64) AppleWebKit/537.36 (KHTML, like Gecko) Chrome/111.0.0.0 Safari/537.36 Edg/111.0.1661.62" etag="V2xAlAVZcPulPRxZYVDa" version="21.1.2" type="device">
  <diagram name="Page-1" id="eQ8vHoDGBUgWwKZT1uyV">
    <mxGraphModel dx="1526" dy="884" grid="1" gridSize="10" guides="1" tooltips="1" connect="1" arrows="1" fold="1" page="1" pageScale="1" pageWidth="850" pageHeight="1100" math="0" shadow="0">
      <root>
        <mxCell id="0" />
        <mxCell id="1" parent="0" />
        <mxCell id="jF2XFRz0FqhjOIGauvpA-1" value="" style="rounded=0;whiteSpace=wrap;html=1;" parent="1" vertex="1">
          <mxGeometry x="160" y="280" width="1480" height="486" as="geometry" />
        </mxCell>
        <mxCell id="8TPDpSwBAOfw3RehzI5V-1" value="Customer" style="shape=umlActor;verticalLabelPosition=bottom;verticalAlign=top;html=1;outlineConnect=0;" parent="1" vertex="1">
          <mxGeometry x="60" y="490" width="30" height="60" as="geometry" />
        </mxCell>
        <mxCell id="8TPDpSwBAOfw3RehzI5V-3" value="" style="endArrow=none;html=1;rounded=0;" parent="1" edge="1">
          <mxGeometry width="50" height="50" relative="1" as="geometry">
            <mxPoint x="110" y="520" as="sourcePoint" />
            <mxPoint x="200" y="520" as="targetPoint" />
          </mxGeometry>
        </mxCell>
        <mxCell id="8TPDpSwBAOfw3RehzI5V-5" value="" style="endArrow=none;html=1;rounded=0;" parent="1" edge="1">
          <mxGeometry width="50" height="50" relative="1" as="geometry">
            <mxPoint x="200" y="680" as="sourcePoint" />
            <mxPoint x="200" y="360" as="targetPoint" />
          </mxGeometry>
        </mxCell>
        <mxCell id="8TPDpSwBAOfw3RehzI5V-13" value="Men" style="ellipse;whiteSpace=wrap;html=1;" parent="1" vertex="1">
          <mxGeometry x="279" y="316" width="120" height="80" as="geometry" />
        </mxCell>
        <mxCell id="8TPDpSwBAOfw3RehzI5V-14" value="Women" style="ellipse;whiteSpace=wrap;html=1;" parent="1" vertex="1">
          <mxGeometry x="279" y="638" width="120" height="80" as="geometry" />
        </mxCell>
        <mxCell id="8TPDpSwBAOfw3RehzI5V-15" value="Traditional&lt;br&gt;Wear" style="ellipse;whiteSpace=wrap;html=1;" parent="1" vertex="1">
          <mxGeometry x="638" y="476" width="120" height="80" as="geometry" />
        </mxCell>
        <mxCell id="8TPDpSwBAOfw3RehzI5V-16" value="&lt;font style=&quot;font-size: 12px;&quot;&gt;Formal &lt;br&gt;Wear&lt;/font&gt;" style="ellipse;whiteSpace=wrap;html=1;" parent="1" vertex="1">
          <mxGeometry x="647" y="316" width="120" height="80" as="geometry" />
        </mxCell>
        <mxCell id="8TPDpSwBAOfw3RehzI5V-17" value="Casual &lt;br&gt;Wear" style="ellipse;whiteSpace=wrap;html=1;" parent="1" vertex="1">
          <mxGeometry x="638" y="637" width="120" height="80" as="geometry" />
        </mxCell>
        <mxCell id="8TPDpSwBAOfw3RehzI5V-18" value="Wishlist" style="ellipse;whiteSpace=wrap;html=1;" parent="1" vertex="1">
          <mxGeometry x="1390" y="319" width="120" height="80" as="geometry" />
        </mxCell>
        <mxCell id="8TPDpSwBAOfw3RehzI5V-19" value="Cart" style="ellipse;whiteSpace=wrap;html=1;" parent="1" vertex="1">
          <mxGeometry x="1390" y="639" width="120" height="80" as="geometry" />
        </mxCell>
        <mxCell id="8TPDpSwBAOfw3RehzI5V-31" value="" style="endArrow=none;dashed=1;html=1;rounded=0;" parent="1" edge="1">
          <mxGeometry width="50" height="50" relative="1" as="geometry">
            <mxPoint x="560" y="680" as="sourcePoint" />
            <mxPoint x="560" y="360" as="targetPoint" />
          </mxGeometry>
        </mxCell>
        <mxCell id="8TPDpSwBAOfw3RehzI5V-35" value="" style="endArrow=none;dashed=1;html=1;rounded=0;" parent="1" edge="1">
          <mxGeometry width="50" height="50" relative="1" as="geometry">
            <mxPoint x="840" y="680" as="sourcePoint" />
            <mxPoint x="840" y="360" as="targetPoint" />
          </mxGeometry>
        </mxCell>
        <mxCell id="8TPDpSwBAOfw3RehzI5V-39" value="" style="endArrow=none;html=1;rounded=0;entryX=0.001;entryY=0.55;entryDx=0;entryDy=0;entryPerimeter=0;" parent="1" target="8TPDpSwBAOfw3RehzI5V-13" edge="1">
          <mxGeometry width="50" height="50" relative="1" as="geometry">
            <mxPoint x="200" y="360" as="sourcePoint" />
            <mxPoint x="279" y="358" as="targetPoint" />
          </mxGeometry>
        </mxCell>
        <mxCell id="8TPDpSwBAOfw3RehzI5V-44" value="&amp;lt;&amp;lt;extend&amp;gt;&amp;gt;" style="text;html=1;strokeColor=none;fillColor=none;align=center;verticalAlign=middle;whiteSpace=wrap;rounded=0;" parent="1" vertex="1">
          <mxGeometry x="471" y="496" width="60" height="30" as="geometry" />
        </mxCell>
        <mxCell id="8TPDpSwBAOfw3RehzI5V-50" value="" style="endArrow=classic;dashed=1;html=1;entryX=0.002;entryY=0.549;entryDx=0;entryDy=0;entryPerimeter=0;" parent="1" edge="1">
          <mxGeometry width="50" height="50" relative="1" as="geometry">
            <mxPoint x="648.2399999999998" y="359.9200000000001" as="sourcePoint" />
            <mxPoint x="560" y="360" as="targetPoint" />
          </mxGeometry>
        </mxCell>
        <mxCell id="8TPDpSwBAOfw3RehzI5V-51" value="" style="endArrow=classic;dashed=1;html=1;entryX=0.005;entryY=0.557;entryDx=0;entryDy=0;entryPerimeter=0;exitX=0.005;exitY=0.557;exitDx=0;exitDy=0;exitPerimeter=0;" parent="1" source="8TPDpSwBAOfw3RehzI5V-15" edge="1">
          <mxGeometry width="50" height="50" relative="1" as="geometry">
            <mxPoint x="630" y="520" as="sourcePoint" />
            <mxPoint x="560" y="520" as="targetPoint" />
          </mxGeometry>
        </mxCell>
        <mxCell id="8TPDpSwBAOfw3RehzI5V-53" value="" style="endArrow=classic;dashed=1;html=1;entryX=0.005;entryY=0.557;entryDx=0;entryDy=0;entryPerimeter=0;" parent="1" edge="1">
          <mxGeometry width="50" height="50" relative="1" as="geometry">
            <mxPoint x="639" y="681" as="sourcePoint" />
            <mxPoint x="560" y="680" as="targetPoint" />
          </mxGeometry>
        </mxCell>
        <mxCell id="8TPDpSwBAOfw3RehzI5V-54" value="" style="endArrow=classic;dashed=1;html=1;" parent="1" edge="1">
          <mxGeometry width="50" height="50" relative="1" as="geometry">
            <mxPoint x="840" y="360" as="sourcePoint" />
            <mxPoint x="768" y="360" as="targetPoint" />
          </mxGeometry>
        </mxCell>
        <mxCell id="8TPDpSwBAOfw3RehzI5V-55" value="" style="endArrow=classic;dashed=1;html=1;exitX=1;exitY=0.55;exitDx=0;exitDy=0;exitPerimeter=0;entryX=1;entryY=0.55;entryDx=0;entryDy=0;entryPerimeter=0;" parent="1" target="8TPDpSwBAOfw3RehzI5V-15" edge="1">
          <mxGeometry width="50" height="50" relative="1" as="geometry">
            <mxPoint x="840" y="520" as="sourcePoint" />
            <mxPoint x="760" y="520" as="targetPoint" />
          </mxGeometry>
        </mxCell>
        <mxCell id="8TPDpSwBAOfw3RehzI5V-56" value="" style="endArrow=classic;dashed=1;html=1;exitX=1.001;exitY=0.531;exitDx=0;exitDy=0;exitPerimeter=0;entryX=1.001;entryY=0.531;entryDx=0;entryDy=0;entryPerimeter=0;" parent="1" target="8TPDpSwBAOfw3RehzI5V-17" edge="1">
          <mxGeometry width="50" height="50" relative="1" as="geometry">
            <mxPoint x="840" y="680" as="sourcePoint" />
            <mxPoint x="840" y="680" as="targetPoint" />
          </mxGeometry>
        </mxCell>
        <mxCell id="8TPDpSwBAOfw3RehzI5V-57" value="" style="endArrow=classic;dashed=1;html=1;dashPattern=1 3;strokeWidth=2;rounded=0;" parent="1" edge="1">
          <mxGeometry width="50" height="50" relative="1" as="geometry">
            <mxPoint x="440" y="360" as="sourcePoint" />
            <mxPoint x="400" y="360" as="targetPoint" />
          </mxGeometry>
        </mxCell>
        <mxCell id="8TPDpSwBAOfw3RehzI5V-58" value="" style="endArrow=classic;dashed=1;html=1;dashPattern=1 3;strokeWidth=2;rounded=0;" parent="1" edge="1">
          <mxGeometry width="50" height="50" relative="1" as="geometry">
            <mxPoint x="440" y="680" as="sourcePoint" />
            <mxPoint x="400" y="680" as="targetPoint" />
          </mxGeometry>
        </mxCell>
        <mxCell id="8TPDpSwBAOfw3RehzI5V-59" value="" style="endArrow=none;dashed=1;html=1;rounded=0;" parent="1" edge="1">
          <mxGeometry width="50" height="50" relative="1" as="geometry">
            <mxPoint x="439" y="680" as="sourcePoint" />
            <mxPoint x="439" y="360" as="targetPoint" />
          </mxGeometry>
        </mxCell>
        <mxCell id="8TPDpSwBAOfw3RehzI5V-66" value="" style="endArrow=classic;dashed=1;html=1;" parent="1" edge="1">
          <mxGeometry width="50" height="50" relative="1" as="geometry">
            <mxPoint x="560" y="520" as="sourcePoint" />
            <mxPoint x="440" y="520" as="targetPoint" />
          </mxGeometry>
        </mxCell>
        <mxCell id="pCZmDs4xwgY6norXoLtz-1" value="&lt;font face=&quot;Comic Sans MS&quot; style=&quot;font-size: 38px;&quot;&gt;&lt;b&gt;Attire Selection Use-Case Diagram&lt;/b&gt;&lt;/font&gt;" style="rounded=0;whiteSpace=wrap;html=1;" parent="1" vertex="1">
          <mxGeometry x="580" y="168" width="690" height="80" as="geometry" />
        </mxCell>
        <mxCell id="m5wSArwCtgNg8KQYAidb-2" value="" style="endArrow=classic;dashed=1;html=1;" parent="1" target="d-1-AiIP2idDbMUhF0PB-2" edge="1">
          <mxGeometry width="50" height="50" relative="1" as="geometry">
            <mxPoint x="1200" y="679" as="sourcePoint" />
            <mxPoint x="1130" y="676" as="targetPoint" />
          </mxGeometry>
        </mxCell>
        <mxCell id="lT7GROjWMFZwrjEk-x4L-1" value="" style="endArrow=none;html=1;rounded=0;entryX=0.001;entryY=0.55;entryDx=0;entryDy=0;entryPerimeter=0;" parent="1" edge="1">
          <mxGeometry width="50" height="50" relative="1" as="geometry">
            <mxPoint x="200" y="680" as="sourcePoint" />
            <mxPoint x="279.12" y="680" as="targetPoint" />
          </mxGeometry>
        </mxCell>
        <mxCell id="wSj0_dg8NXaN5eq1L0U--1" value="&amp;lt;&amp;lt;extend&amp;gt;&amp;gt;" style="text;html=1;strokeColor=none;fillColor=none;align=center;verticalAlign=middle;whiteSpace=wrap;rounded=0;" parent="1" vertex="1">
          <mxGeometry x="871" y="498" width="60" height="30" as="geometry" />
        </mxCell>
        <mxCell id="wSj0_dg8NXaN5eq1L0U--2" value="" style="endArrow=classic;dashed=1;html=1;" parent="1" edge="1">
          <mxGeometry width="50" height="50" relative="1" as="geometry">
            <mxPoint x="960" y="520" as="sourcePoint" />
            <mxPoint x="840" y="520" as="targetPoint" />
          </mxGeometry>
        </mxCell>
        <mxCell id="fsQWTS1RZe3mk1oJbWmq-1" value="Database" style="shape=umlActor;verticalLabelPosition=bottom;verticalAlign=top;html=1;outlineConnect=0;" parent="1" vertex="1">
          <mxGeometry x="1761" y="500" width="29" height="60" as="geometry" />
        </mxCell>
        <mxCell id="DSQi8ekIwqTMy-uhthdK-1" value="&lt;font style=&quot;font-size: 14px;&quot;&gt;System&lt;/font&gt;" style="text;html=1;strokeColor=none;fillColor=none;align=center;verticalAlign=middle;whiteSpace=wrap;rounded=0;" parent="1" vertex="1">
          <mxGeometry x="1580" y="280" width="60" height="30" as="geometry" />
        </mxCell>
        <mxCell id="d-1-AiIP2idDbMUhF0PB-1" value="Size" style="ellipse;whiteSpace=wrap;html=1;" parent="1" vertex="1">
          <mxGeometry x="1007" y="318" width="120" height="80" as="geometry" />
        </mxCell>
        <mxCell id="d-1-AiIP2idDbMUhF0PB-2" value="Color" style="ellipse;whiteSpace=wrap;html=1;" parent="1" vertex="1">
          <mxGeometry x="1008" y="639" width="120" height="80" as="geometry" />
        </mxCell>
        <mxCell id="d-1-AiIP2idDbMUhF0PB-3" value="" style="endArrow=none;dashed=1;html=1;rounded=0;" parent="1" edge="1">
          <mxGeometry width="50" height="50" relative="1" as="geometry">
            <mxPoint x="966" y="680" as="sourcePoint" />
            <mxPoint x="966" y="360" as="targetPoint" />
          </mxGeometry>
        </mxCell>
        <mxCell id="d-1-AiIP2idDbMUhF0PB-4" value="" style="endArrow=classic;dashed=1;html=1;" parent="1" edge="1">
          <mxGeometry width="50" height="50" relative="1" as="geometry">
            <mxPoint x="1008" y="359" as="sourcePoint" />
            <mxPoint x="968" y="359" as="targetPoint" />
          </mxGeometry>
        </mxCell>
        <mxCell id="d-1-AiIP2idDbMUhF0PB-5" value="" style="endArrow=classic;dashed=1;html=1;" parent="1" edge="1">
          <mxGeometry width="50" height="50" relative="1" as="geometry">
            <mxPoint x="1008" y="679" as="sourcePoint" />
            <mxPoint x="968" y="679" as="targetPoint" />
          </mxGeometry>
        </mxCell>
        <mxCell id="d-1-AiIP2idDbMUhF0PB-8" value="" style="endArrow=classic;dashed=1;html=1;entryX=0.995;entryY=0.528;entryDx=0;entryDy=0;entryPerimeter=0;" parent="1" target="d-1-AiIP2idDbMUhF0PB-1" edge="1">
          <mxGeometry width="50" height="50" relative="1" as="geometry">
            <mxPoint x="1200" y="360" as="sourcePoint" />
            <mxPoint x="1127" y="357" as="targetPoint" />
          </mxGeometry>
        </mxCell>
        <mxCell id="d-1-AiIP2idDbMUhF0PB-11" value="Quantity" style="ellipse;whiteSpace=wrap;html=1;" parent="1" vertex="1">
          <mxGeometry x="1008" y="479" width="120" height="80" as="geometry" />
        </mxCell>
        <mxCell id="d-1-AiIP2idDbMUhF0PB-12" value="" style="endArrow=none;dashed=1;html=1;" parent="1" edge="1">
          <mxGeometry width="50" height="50" relative="1" as="geometry">
            <mxPoint x="967" y="519.5" as="sourcePoint" />
            <mxPoint x="1007" y="519.5" as="targetPoint" />
          </mxGeometry>
        </mxCell>
        <mxCell id="d-1-AiIP2idDbMUhF0PB-14" value="" style="endArrow=classic;dashed=1;html=1;" parent="1" edge="1">
          <mxGeometry width="50" height="50" relative="1" as="geometry">
            <mxPoint x="1200" y="520" as="sourcePoint" />
            <mxPoint x="1130" y="520" as="targetPoint" />
          </mxGeometry>
        </mxCell>
        <mxCell id="aZ-U2Oils5stKx6U4YJ1-1" value="" style="endArrow=none;html=1;rounded=0;exitX=0.999;exitY=0.511;exitDx=0;exitDy=0;exitPerimeter=0;" parent="1" source="8TPDpSwBAOfw3RehzI5V-18" edge="1">
          <mxGeometry width="50" height="50" relative="1" as="geometry">
            <mxPoint x="1430" y="530" as="sourcePoint" />
            <mxPoint x="1590" y="360" as="targetPoint" />
          </mxGeometry>
        </mxCell>
        <mxCell id="aZ-U2Oils5stKx6U4YJ1-2" value="" style="endArrow=none;html=1;rounded=0;exitX=0.999;exitY=0.511;exitDx=0;exitDy=0;exitPerimeter=0;" parent="1" edge="1">
          <mxGeometry width="50" height="50" relative="1" as="geometry">
            <mxPoint x="1509.8799999999999" y="679.88" as="sourcePoint" />
            <mxPoint x="1590" y="680" as="targetPoint" />
          </mxGeometry>
        </mxCell>
        <mxCell id="aZ-U2Oils5stKx6U4YJ1-3" value="" style="endArrow=none;html=1;rounded=0;" parent="1" edge="1">
          <mxGeometry width="50" height="50" relative="1" as="geometry">
            <mxPoint x="1590" y="680" as="sourcePoint" />
            <mxPoint x="1590" y="360" as="targetPoint" />
          </mxGeometry>
        </mxCell>
        <mxCell id="aZ-U2Oils5stKx6U4YJ1-4" value="" style="endArrow=none;html=1;rounded=0;" parent="1" edge="1">
          <mxGeometry width="50" height="50" relative="1" as="geometry">
            <mxPoint x="1590" y="520" as="sourcePoint" />
            <mxPoint x="1710" y="520" as="targetPoint" />
          </mxGeometry>
        </mxCell>
        <mxCell id="aZ-U2Oils5stKx6U4YJ1-5" value="" style="endArrow=none;dashed=1;html=1;rounded=0;" parent="1" edge="1">
          <mxGeometry width="50" height="50" relative="1" as="geometry">
            <mxPoint x="1200" y="680" as="sourcePoint" />
            <mxPoint x="1200" y="360" as="targetPoint" />
          </mxGeometry>
        </mxCell>
        <mxCell id="aZ-U2Oils5stKx6U4YJ1-6" value="" style="endArrow=classic;dashed=1;html=1;" parent="1" edge="1">
          <mxGeometry width="50" height="50" relative="1" as="geometry">
            <mxPoint x="1320" y="520" as="sourcePoint" />
            <mxPoint x="1200" y="520" as="targetPoint" />
          </mxGeometry>
        </mxCell>
        <mxCell id="aZ-U2Oils5stKx6U4YJ1-7" value="&amp;lt;&amp;lt;extend&amp;gt;&amp;gt;" style="text;html=1;strokeColor=none;fillColor=none;align=center;verticalAlign=middle;whiteSpace=wrap;rounded=0;" parent="1" vertex="1">
          <mxGeometry x="1231" y="498" width="60" height="30" as="geometry" />
        </mxCell>
        <mxCell id="aZ-U2Oils5stKx6U4YJ1-8" value="" style="endArrow=classic;dashed=1;html=1;" parent="1" edge="1">
          <mxGeometry width="50" height="50" relative="1" as="geometry">
            <mxPoint x="1390" y="679" as="sourcePoint" />
            <mxPoint x="1318" y="679" as="targetPoint" />
          </mxGeometry>
        </mxCell>
        <mxCell id="aZ-U2Oils5stKx6U4YJ1-9" value="" style="endArrow=classic;dashed=1;html=1;entryX=0.995;entryY=0.528;entryDx=0;entryDy=0;entryPerimeter=0;" parent="1" edge="1">
          <mxGeometry width="50" height="50" relative="1" as="geometry">
            <mxPoint x="1390" y="360" as="sourcePoint" />
            <mxPoint x="1318.4" y="360.2399999999999" as="targetPoint" />
          </mxGeometry>
        </mxCell>
        <mxCell id="aZ-U2Oils5stKx6U4YJ1-10" value="" style="endArrow=none;dashed=1;html=1;rounded=0;" parent="1" edge="1">
          <mxGeometry width="50" height="50" relative="1" as="geometry">
            <mxPoint x="1320" y="680" as="sourcePoint" />
            <mxPoint x="1320" y="360" as="targetPoint" />
          </mxGeometry>
        </mxCell>
      </root>
    </mxGraphModel>
  </diagram>
</mxfile>
